<?xml version="1.0" standalone="no"?>
<!DOCTYPE svg PUBLIC "-//W3C//DTD SVG 20010904//EN"
 "http://www.w3.org/TR/2001/REC-SVG-20010904/DTD/svg10.dtd">
<svg version="1.0" xmlns="http://www.w3.org/2000/svg"
 width="100.000000pt" height="100.000000pt" viewBox="0 0 100.000000 100.000000"
 preserveAspectRatio="xMidYMid meet">
<metadata>
Created by potrace 1.14, written by Peter Selinger 2001-2017
</metadata>
<g transform="translate(0.000000,100.000000) scale(0.100000,-0.100000)"
fill="#000000" stroke="none">
<path d="M200 841 c0 -11 -2 -11 257 -56 229 -40 233 -40 233 -22 0 9 -34 19
-107 30 -60 10 -119 19 -133 22 -14 2 -65 11 -115 19 -104 18 -135 20 -135 7z"/>
<path d="M120 767 c0 -11 31 -17 133 -26 144 -14 196 -19 242 -26 17 -2 68 -7
114 -11 69 -5 83 -4 79 7 -4 13 -90 24 -433 53 -44 4 -92 9 -107 12 -20 4 -28
1 -28 -9z"/>
<path d="M417 650 c-33 -62 -34 -77 -2 -125 15 -21 23 -44 20 -55 -3 -11 0
-20 10 -24 27 -10 24 54 -5 91 -25 32 -25 59 -2 98 28 45 33 65 19 65 -7 0
-25 -22 -40 -50z"/>
<path d="M476 639 c-32 -63 -32 -67 0 -110 15 -21 24 -43 21 -57 -3 -17 0 -22
12 -20 26 5 25 37 -3 78 -32 49 -32 54 -1 113 20 37 22 47 11 47 -8 0 -26 -23
-40 -51z"/>
<path d="M539 642 c-30 -58 -30 -58 -1 -110 13 -24 22 -53 19 -63 -4 -15 -1
-19 11 -17 27 5 25 43 -3 86 -27 41 -26 56 7 104 22 31 22 34 5 41 -8 3 -23
-13 -38 -41z"/>
<path d="M167 422 c-13 -3 -15 -10 -10 -35 24 -126 132 -188 333 -188 130 0
206 21 264 72 41 35 60 68 69 117 6 30 4 32 -21 33 -77 3 -621 4 -635 1z"/>
<path d="M462 172 c-93 -4 -95 -25 -2 -24 117 1 130 2 130 11 0 12 -42 17
-128 13z"/>
</g>
</svg>
